<svg xmlns="http://www.w3.org/2000/svg" width="1280" height="720" viewBox="0 0 1280 720" role="img" aria-labelledby="title desc"><title id="title">01 / Current flow viewer</title><desc id="desc">Low-fidelity trace of the inspected flow viewer. Gray marks existing UI; the graph is simplified, not a new design.</desc><style>text{font-family:Arial,Helvetica,sans-serif} .edge{fill:none;stroke:#8995a1;stroke-width:1.5;marker-end:url(#arrow)}</style><defs><marker id="arrow" viewBox="0 0 10 10" refX="9" refY="5" markerWidth="6" markerHeight="6" orient="auto-start-reverse"><path d="M0 0L10 5L0 10z" fill="#8995a1"/></marker></defs><rect x="0" y="0" width="1280" height="720" rx="0" fill="#ffffff" stroke="#bac1c9"/><rect x="0" y="0" width="934" height="44" rx="0" fill="#ffffff" stroke="#bac1c9"/><text x="10" y="27" font-size="14" font-weight="700" fill="#26303b">User Flow Workbench</text><rect x="165" y="7" width="88" height="30" rx="4" fill="#ffffff" stroke="#bac1c9"/><text x="209.0" y="27" font-size="12" font-weight="600" fill="#26303b" text-anchor="middle">Auto layout</text><rect x="260" y="7" width="38" height="30" rx="4" fill="#ffffff" stroke="#bac1c9"/><text x="279.0" y="27" font-size="12" font-weight="600" fill="#26303b" text-anchor="middle">Fit</text><rect x="306" y="7" width="78" height="30" rx="4" fill="#ffffff" stroke="#bac1c9"/><text x="345.0" y="27" font-size="12" font-weight="600" fill="#26303b" text-anchor="middle">Add node</text><rect x="391" y="7" width="76" height="30" rx="4" fill="#ffffff" stroke="#bac1c9"/><text x="429.0" y="27" font-size="12" font-weight="600" fill="#99a1aa" text-anchor="middle">Duplicate</text><rect x="474" y="7" width="62" height="30" rx="4" fill="#ffffff" stroke="#bac1c9"/><text x="505.0" y="27" font-size="12" font-weight="600" fill="#99a1aa" text-anchor="middle">Delete</text><rect x="657" y="7" width="90" height="30" rx="4" fill="#ffffff" stroke="#bac1c9"/><text x="702.0" y="27" font-size="12" font-weight="600" fill="#26303b" text-anchor="middle">All flows</text><rect x="754" y="7" width="92" height="30" rx="4" fill="#ffffff" stroke="#bac1c9"/><text x="800.0" y="27" font-size="12" font-weight="600" fill="#26303b" text-anchor="middle">Export JSON</text><rect x="853" y="7" width="73" height="30" rx="4" fill="#ffffff" stroke="#bac1c9"/><text x="889.5" y="27" font-size="12" font-weight="600" fill="#26303b" text-anchor="middle">Reset file</text><rect x="0" y="44" width="934" height="42" rx="0" fill="#ffffff" stroke="#bac1c9"/><text x="10" y="70" font-size="12" font-weight="400" fill="#65717f">View</text><rect x="44" y="50" width="48" height="30" rx="4" fill="#eef4fc" stroke="#285da8"/><text x="68.0" y="70" font-size="12" font-weight="600" fill="#285da8" text-anchor="middle">Base</text><rect x="101" y="50" width="160" height="30" rx="4" fill="#ffffff" stroke="#bac1c9"/><text x="181.0" y="70" font-size="12" font-weight="600" fill="#26303b" text-anchor="middle">One resume per posting</text><rect x="270" y="50" width="209" height="30" rx="4" fill="#ffffff" stroke="#bac1c9"/><text x="374.5" y="70" font-size="12" font-weight="600" fill="#26303b" text-anchor="middle">Evidence projection</text><rect x="488" y="50" width="215" height="30" rx="4" fill="#ffffff" stroke="#bac1c9"/><text x="595.5" y="70" font-size="12" font-weight="600" fill="#26303b" text-anchor="middle">Guided evidence interview</text><rect x="0" y="86" width="934" height="634" rx="0" fill="#f2f4f6" stroke="#bac1c9"/><path d="M270 178H325" class="edge"/><path d="M270 178H284V268H298" class="edge"/><path d="M505 178H655" class="edge"/><path d="M505 268H655" class="edge"/><path d="M835 178H850V341H110V365" class="edge"/><path d="M835 268H850V431H110V455" class="edge"/><path d="M270 393H360" class="edge"/><path d="M270 483H315V393H360" class="edge"/><path d="M540 393H655" class="edge"/><path d="M835 393H850V576H110V600" class="edge"/><path d="M270 628H360" class="edge"/><path d="M540 628H655" class="edge"/><rect x="90" y="150" width="180" height="58" rx="7" fill="#ffffff" stroke="#8c99a5"/><text x="104" y="184" font-size="13" font-weight="600" fill="#26303b">Job seeker</text><rect x="325" y="150" width="180" height="58" rx="7" fill="#ffffff" stroke="#8c99a5"/><text x="339" y="184" font-size="13" font-weight="600" fill="#26303b">Target job posting</text><rect x="325" y="240" width="180" height="58" rx="7" fill="#ffffff" stroke="#8c99a5"/><text x="339" y="274" font-size="13" font-weight="600" fill="#26303b">Current resume</text><rect x="655" y="150" width="180" height="58" rx="7" fill="#ffffff" stroke="#8c99a5"/><text x="669" y="174" font-size="13" font-weight="600" fill="#26303b">Parse the</text><text x="669" y="193" font-size="13" font-weight="600" fill="#26303b">job posting</text><rect x="655" y="240" width="180" height="58" rx="7" fill="#ffffff" stroke="#8c99a5"/><text x="669" y="264" font-size="13" font-weight="600" fill="#26303b">Inventory</text><text x="669" y="283" font-size="13" font-weight="600" fill="#26303b">resume evidence</text><rect x="90" y="365" width="180" height="58" rx="7" fill="#ffffff" stroke="#8c99a5"/><text x="104" y="399" font-size="13" font-weight="600" fill="#26303b">Requirements brief</text><rect x="90" y="455" width="180" height="58" rx="7" fill="#ffffff" stroke="#8c99a5"/><text x="104" y="489" font-size="13" font-weight="600" fill="#26303b">Resume evidence</text><rect x="360" y="365" width="180" height="58" rx="7" fill="#ffffff" stroke="#8c99a5"/><text x="374" y="389" font-size="13" font-weight="600" fill="#26303b">Map requirements</text><text x="374" y="408" font-size="13" font-weight="600" fill="#26303b">to evidence</text><rect x="655" y="365" width="180" height="58" rx="7" fill="#ffffff" stroke="#8c99a5"/><text x="669" y="399" font-size="13" font-weight="600" fill="#26303b">Match / gap matrix</text><rect x="90" y="600" width="180" height="58" rx="7" fill="#ffffff" stroke="#8c99a5"/><text x="104" y="624" font-size="13" font-weight="600" fill="#26303b">Draft targeted</text><text x="104" y="643" font-size="13" font-weight="600" fill="#26303b">changes</text><rect x="360" y="600" width="180" height="58" rx="7" fill="#ffffff" stroke="#8c99a5"/><text x="374" y="634" font-size="13" font-weight="600" fill="#26303b">Human approval</text><rect x="655" y="600" width="180" height="58" rx="7" fill="#ffffff" stroke="#8c99a5"/><text x="669" y="634" font-size="13" font-weight="600" fill="#26303b">Tailored resume</text><rect x="10" y="680" width="208" height="27" rx="5" fill="#ffffff" stroke="#bac1c9"/><text x="20" y="698" font-size="11" font-weight="400" fill="#65717f">89%  ·  ELK / local routes</text><rect x="520" y="680" width="400" height="27" rx="5" fill="#ffffff" stroke="#bac1c9"/><text x="532" y="698" font-size="11" font-weight="400" fill="#65717f">User   Input   Process   Artifact   Handoff   Outcome</text><rect x="934" y="0" width="346" height="720" rx="0" fill="#ffffff" stroke="#bac1c9"/><text x="955" y="27" font-size="13" font-weight="600" fill="#285da8">Inspector</text><text x="1120" y="27" font-size="13" font-weight="600" fill="#26303b">Flow DSL</text><path d="M951 43L1080 43" fill="none" stroke="#285da8"/><text x="953" y="74" font-size="15" font-weight="700" fill="#26303b">Nodes</text><text x="953" y="98" font-size="12" font-weight="400" fill="#65717f">Select a node to inspect its details.</text><rect x="953" y="113" width="32" height="30" rx="4" fill="#eef4fc" stroke="#285da8"/><text x="969.0" y="133" font-size="12" font-weight="600" fill="#285da8" text-anchor="middle">All</text><rect x="994" y="113" width="49" height="30" rx="4" fill="#ffffff" stroke="#bac1c9"/><text x="1018.5" y="133" font-size="12" font-weight="600" fill="#26303b" text-anchor="middle">actor</text><rect x="1052" y="113" width="48" height="30" rx="4" fill="#ffffff" stroke="#bac1c9"/><text x="1076.0" y="133" font-size="12" font-weight="600" fill="#26303b" text-anchor="middle">input</text><rect x="1109" y="113" width="67" height="30" rx="4" fill="#ffffff" stroke="#bac1c9"/><text x="1142.5" y="133" font-size="12" font-weight="600" fill="#26303b" text-anchor="middle">process</text><text x="953" y="169" font-size="12" font-weight="400" fill="#65717f">19 nodes · type filters</text><path d="M951 184L1260 184" fill="none" stroke="#bac1c9"/><rect x="954" y="200" width="25" height="26" rx="3" fill="#f2f4f6" stroke="#bac1c9"/><text x="992" y="212" font-size="13" font-weight="600" fill="#26303b">Job seeker</text><text x="992" y="231" font-size="11" font-weight="400" fill="#65717f">Actor</text><path d="M951 249L1260 249" fill="none" stroke="#bac1c9"/><rect x="954" y="262" width="25" height="26" rx="3" fill="#f2f4f6" stroke="#bac1c9"/><text x="992" y="274" font-size="13" font-weight="600" fill="#26303b">Understand the role</text><text x="992" y="293" font-size="11" font-weight="400" fill="#65717f">Need</text><path d="M951 311L1260 311" fill="none" stroke="#bac1c9"/><rect x="954" y="324" width="25" height="26" rx="3" fill="#f2f4f6" stroke="#bac1c9"/><text x="992" y="336" font-size="13" font-weight="600" fill="#26303b">Stay truthful and defensible</text><text x="992" y="355" font-size="11" font-weight="400" fill="#65717f">Need</text><path d="M951 373L1260 373" fill="none" stroke="#bac1c9"/><rect x="954" y="386" width="25" height="26" rx="3" fill="#f2f4f6" stroke="#bac1c9"/><text x="992" y="398" font-size="13" font-weight="600" fill="#26303b">Spend effort where it matters</text><text x="992" y="417" font-size="11" font-weight="400" fill="#65717f">Need</text><path d="M951 435L1260 435" fill="none" stroke="#bac1c9"/><rect x="954" y="448" width="25" height="26" rx="3" fill="#f2f4f6" stroke="#bac1c9"/><text x="992" y="460" font-size="13" font-weight="600" fill="#26303b">Side-by-side source context</text><text x="992" y="479" font-size="11" font-weight="400" fill="#65717f">UX</text><path d="M951 497L1260 497" fill="none" stroke="#bac1c9"/><rect x="954" y="510" width="25" height="26" rx="3" fill="#f2f4f6" stroke="#bac1c9"/><text x="992" y="522" font-size="13" font-weight="600" fill="#26303b">Evidence and confidence</text><text x="992" y="541" font-size="11" font-weight="400" fill="#65717f">UX</text><path d="M951 559L1260 559" fill="none" stroke="#bac1c9"/><rect x="954" y="572" width="25" height="26" rx="3" fill="#f2f4f6" stroke="#bac1c9"/><text x="992" y="584" font-size="13" font-weight="600" fill="#26303b">Target job posting</text><text x="992" y="603" font-size="11" font-weight="400" fill="#65717f">Input</text><path d="M951 621L1260 621" fill="none" stroke="#bac1c9"/><rect x="954" y="634" width="25" height="26" rx="3" fill="#f2f4f6" stroke="#bac1c9"/><text x="992" y="646" font-size="13" font-weight="600" fill="#26303b">Current resume</text><text x="992" y="665" font-size="11" font-weight="400" fill="#65717f">Input</text><path d="M951 683L1260 683" fill="none" stroke="#bac1c9"/></svg>